<?xml version="1.0" encoding="utf-8"?>
<!-- Generator: Adobe Illustrator 17.1.0, SVG Export Plug-In . SVG Version: 6.00 Build 0)  -->
<!DOCTYPE svg PUBLIC "-//W3C//DTD SVG 1.1//EN" "http://www.w3.org/Graphics/SVG/1.1/DTD/svg11.dtd">
<svg version="1.1" id="Base" xmlns="http://www.w3.org/2000/svg" xmlns:xlink="http://www.w3.org/1999/xlink" x="0px" y="0px"
	 viewBox="0 0 832 640" enable-background="new 0 0 832 640" xml:space="preserve">
<path fill="#FF8BA2" d="M560,224c0-4,3-8,8-8c4,0,7,3,8,4c1-1,4-4,8-4c6,0,8,4,8,8c0,8-14,19-16,20C574,243,560,232,560,224"/>
<path fill="#FF8BA2" d="M512,194c0-6,4.5-12,12-12c6,0,10.5,4.5,12,6c1.5-1.5,6-6,12-6c9,0,12,6,12,12c0,12-21,28.5-24,30
	C533,222.5,512,206,512,194"/>
<g>
	<path fill="#E3BD73" d="M495,293.6c-8.2-3.1-21.7-3.1-30,0l-98,36.8c-8.2,3.1-15,12.8-15,21.6v128c0,8.8,6.7,18.5,15,21.6l98,36.8
		c8.2,3.1,21.7,3.1,30,0l98-36.8c8.2-3.1,15-12.8,15-21.6V352c0-8.8-6.7-18.5-15-21.6L495,293.6z"/>
	<g opacity="0.4">
		<radialGradient id="SVGID_1_" cx="368" cy="438" r="16.5503" gradientUnits="userSpaceOnUse">
			<stop  offset="0" style="stop-color:#FF0000"/>
			<stop  offset="1" style="stop-color:#FF0000;stop-opacity:0"/>
		</radialGradient>
		<path fill="url(#SVGID_1_)" d="M384,444c0,8.8-7.2,13.3-16,10s-16-13.2-16-22s7.2-13.3,16-10S384,435.2,384,444z"/>
	</g>
	<g opacity="0.4">
		<radialGradient id="SVGID_2_" cx="464" cy="474" r="16.5503" gradientUnits="userSpaceOnUse">
			<stop  offset="0" style="stop-color:#FF0000"/>
			<stop  offset="1" style="stop-color:#FF0000;stop-opacity:0"/>
		</radialGradient>
		<path fill="url(#SVGID_2_)" d="M480,480c0,8.8-7.2,13.3-16,10s-16-13.2-16-22s7.2-13.3,16-10S480,471.2,480,480z"/>
	</g>
	<path fill="#261F13" d="M680,360c0-48-40-72-80-72c-30.6,0-46.5,7.3-61.9,21.9l-45.9-17.1c-8.3-2.2-19.9-1.9-27.3,0.8l-98,36.8
		c-8.2,3.1-15,12.8-15,21.6c0-6,12.7-10.8,29-5c2.5,0.9,5,1.8,7.4,2.6c19.6,8.9,19.8,19.4,27.6,22.4c7.7,2.9,14.4-6.2,32.6,0.1
		c0.9,0.3,1.7,0.6,2.4,0.9c22,8,35,24,35,42c0,19.1,19,25,42.2,28.7c1-8.1,7.3-16.5,14.8-19.4l2-0.8c8.2-3.1,15,1.6,15,10.4
		c0,4.7-1.9,9.6-4.9,13.6c22.7,3.4,44.4,8.6,52.9,24.4c0-6.1,0-17.8,0-32c0,40,48,56,72,48c-16-16-16-32-16-48S680,400,680,360z"/>
	<polygon fill="#261F13" points="446,438 424,430 424,436 446,444 	"/>
	<polygon fill="#261F13" points="408,424 386,416 386,422 408,430 	"/>
</g>
<g>
	<path fill="#FFCC77" d="M367,85.6c-8.2-3.1-21.7-3.1-30,0l-98,36.8c-8.2,3.1-15,12.8-15,21.6v128c0,8.8,6.7,18.5,15,21.6l98,36.8
		c8.2,3.1,21.7,3.1,30,0l98-36.8c8.2-3.1,15-12.8,15-21.6V144c0-8.8-6.7-18.5-15-21.6L367,85.6z"/>
	<path fill="#773311" d="M337,266.4L304,254l-17-6.4c-8.2-3.1-15-12.8-15-21.6s6.7-13.5,15-10.4l17,6.4v-64l24.5,9.2
		c4.1,1.5,10.9,1.5,15,0L368,158l1,0.4c8.2,3.1,21.7,3.1,30,0l34-12.8c8.2-3.1,8.2-8.1,0-11.2l-1-0.4l24.5-9.2
		c4.1-1.5,4.1-4.1,0-5.6l-5.5-2.1L416,104l-49-18.4c-8.2-3.1-21.7-3.1-30,0L288,104l-49,18.4c-8.2,3.1-15,12.8-15,21.6v128
		c0,8.8,6.7,18.5,15,21.6l49,18.4l49,18.4c8.2,3.1,21.7,3.1,30,0l49-18.4l33-12.4l0,0l6.2-2.3l9.8-3.7c8.2-3.1,15-12.8,15-21.6v-48
		l-113,42.4C358.7,269.5,345.3,269.5,337,266.4z M383,276.4l66-24.8c8.2-3.1,15,1.6,15,10.4s-6.7,18.5-15,21.6l-17,6.4v-2
		c0-4.4-3.4-6.7-7.5-5.2l-17,6.4c-4.1,1.5-7.5,6.4-7.5,10.8v2l-17,6.4c-8.2,3.1-15-1.6-15-10.4S374.7,279.5,383,276.4z"/>
	<polygon fill="none" points="480,128 352,80 224,128 224,288 352,336 480,288 	"/>
	<polygon fill="#261F13" points="386,228 408,220 408,226 386,234 	"/>
	<polygon fill="#261F13" points="424,214 446,206 446,212 424,220 	"/>
</g>
</svg>
