<?xml version="1.0" encoding="utf-8"?>
<!-- Generator: Adobe Illustrator 17.1.0, SVG Export Plug-In . SVG Version: 6.00 Build 0)  -->
<!DOCTYPE svg PUBLIC "-//W3C//DTD SVG 1.1//EN" "http://www.w3.org/Graphics/SVG/1.1/DTD/svg11.dtd">
<svg version="1.1" id="Base" xmlns="http://www.w3.org/2000/svg" xmlns:xlink="http://www.w3.org/1999/xlink" x="0px" y="0px"
	 viewBox="0 0 832 512" enable-background="new 0 0 832 512" xml:space="preserve">
<g>
	<path fill="#FFCC77" d="M271,133.6c-8.2-3.1-21.7-3.1-30,0l-98,36.8c-8.2,3.1-15,12.8-15,21.6v128c0,8.8,6.7,18.5,15,21.6l98,36.8
		c8.2,3.1,21.7,3.1,30,0l98-36.8c8.2-3.1,15-12.8,15-21.6V192c0-8.8-6.7-18.5-15-21.6L271,133.6z"/>
	<path fill="#261F13" d="M344,258c0,4.4-3.4,9.3-7.5,10.8l-1,0.4c-4.1,1.5-7.5-0.8-7.5-5.2v-10c0-4.4,3.4-9.3,7.5-10.8l1-0.4
		c4.1-1.5,7.5,0.8,7.5,5.2V258z"/>
	<path fill="#261F13" d="M312,270c0,4.4-3.4,9.3-7.5,10.8l-1,0.4c-4.1,1.5-7.5-0.8-7.5-5.2v-10c0-4.4,3.4-9.3,7.5-10.8l1-0.4
		c4.1-1.5,7.5,0.8,7.5,5.2V270z"/>
	<path fill="#773311" d="M241,314.4L208,302l-17-6.4c-8.2-3.1-15-12.8-15-21.6s6.7-13.5,15-10.4l17,6.4v-64l24.5,9.2
		c4.1,1.5,10.9,1.5,15,0L272,206l1,0.4c8.2,3.1,21.7,3.1,30,0l34-12.8c8.2-3.1,8.2-8.1,0-11.2l-1-0.4l24.5-9.2
		c4.1-1.5,4.1-4.1,0-5.6l-5.5-2.1L320,152l-49-18.4c-8.2-3.1-21.7-3.1-30,0L192,152l-49,18.4c-8.2,3.1-15,12.8-15,21.6v128
		c0,8.8,6.7,18.5,15,21.6l49,18.4l49,18.4c8.2,3.1,21.7,3.1,30,0l49-18.4l33-12.4l0,0l6.2-2.3l9.8-3.7c8.2-3.1,15-12.8,15-21.6v-48
		l-113,42.4C262.7,317.5,249.3,317.5,241,314.4z M287,324.4l66-24.8c8.2-3.1,15,1.6,15,10.4s-6.7,18.5-15,21.6l-17,6.4v-2
		c0-4.4-3.4-6.7-7.5-5.2l-17,6.4c-4.1,1.5-7.5,6.4-7.5,10.8v2l-17,6.4c-8.2,3.1-15-1.6-15-10.4S278.7,327.5,287,324.4z"/>
	<polygon fill="none" points="384,176 256,128 128,176 128,336 256,384 384,336 	"/>
</g>
<g>
	<path fill="#E3BD73" d="M591,133.6c-8.2-3.1-21.7-3.1-30,0l-98,36.8c-8.2,3.1-15,12.8-15,21.6v128c0,8.8,6.7,18.5,15,21.6l98,36.8
		c8.2,3.1,21.7,3.1,30,0l98-36.8c8.2-3.1,15-12.8,15-21.6V192c0-8.8-6.7-18.5-15-21.6L591,133.6z"/>
	<path fill="#261F13" d="M488,258c0,4.4,3.4,9.3,7.5,10.8l1,0.4c4.1,1.5,7.5-0.8,7.5-5.2v-10c0-4.4-3.4-9.3-7.5-10.8l-1-0.4
		c-4.1-1.5-7.5,0.8-7.5,5.2V258z"/>
	<path fill="#261F13" d="M520,270c0,4.4,3.4,9.3,7.5,10.8l1,0.4c4.1,1.5,7.5-0.8,7.5-5.2v-10c0-4.4-3.4-9.3-7.5-10.8l-1-0.4
		c-4.1-1.5-7.5,0.8-7.5,5.2V270z"/>
	<path fill="#FFFFFF" d="M472,300.2c0.9,13.1,18.5,30.4,40,39c22,8.8,40,5.2,40-8c0-0.3,0-0.7,0-1L472,300.2z"/>
	<g opacity="0.4">
		<radialGradient id="SVGID_1_" cx="464" cy="278" r="16.5503" gradientUnits="userSpaceOnUse">
			<stop  offset="0" style="stop-color:#FF0000"/>
			<stop  offset="1" style="stop-color:#FF0000;stop-opacity:0"/>
		</radialGradient>
		<path fill="url(#SVGID_1_)" d="M480,284c0,8.8-7.2,13.3-16,10s-16-13.2-16-22s7.2-13.3,16-10S480,275.2,480,284z"/>
	</g>
	<g opacity="0.4">
		<radialGradient id="SVGID_2_" cx="560" cy="314" r="16.5503" gradientUnits="userSpaceOnUse">
			<stop  offset="0" style="stop-color:#FF0000"/>
			<stop  offset="1" style="stop-color:#FF0000;stop-opacity:0"/>
		</radialGradient>
		<path fill="url(#SVGID_2_)" d="M576,320c0,8.8-7.2,13.3-16,10s-16-13.2-16-22s7.2-13.3,16-10S576,311.2,576,320z"/>
	</g>
	<path fill="#261F13" d="M776,200c0-48-40-72-80-72c-30.6,0-46.5,7.3-61.9,21.9l-45.9-17.1c-8.3-2.2-19.9-1.9-27.3,0.8l-98,36.8
		c-8.2,3.1-15,12.8-15,21.6c0-6,12.7-10.8,29-5c2.5,0.9,5,1.8,7.4,2.6c19.6,8.9,19.8,19.4,27.6,22.4c7.7,2.9,14.4-6.2,32.6,0.1
		c0.9,0.3,1.7,0.6,2.4,0.9c22,8,35,24,35,42c0,19.1,19,25,42.2,28.7c1-8.1,7.3-16.5,14.8-19.4l2-0.8c8.2-3.1,15,1.6,15,10.4
		c0,4.7-1.9,9.6-4.9,13.6c22.7,3.4,44.4,8.6,52.9,24.4c0-6.1,0-17.8,0-32c0,40,48,56,72,48c-16-16-16-32-16-48S776,240,776,200z"/>
</g>
</svg>
